<svg xmlns="http://www.w3.org/2000/svg" viewBox="0 0 76.28 116.04"><defs><style>.cls-1{font-size:7.95px;}.cls-1,.cls-10,.cls-2,.cls-4,.cls-5,.cls-6,.cls-7,.cls-9{font-family:Courier, Courier;}.cls-2{font-size:6.29px;letter-spacing:0em;}.cls-3,.cls-8{fill:none;stroke:#000;stroke-miterlimit:10;}.cls-3{stroke-width:0.75px;}.cls-4{font-size:6px;}.cls-10,.cls-5{font-size:8px;}.cls-6{font-size:6.52px;}.cls-7{font-size:6.52px;}.cls-8{stroke-width:4px;}.cls-9{font-size:6.34px;letter-spacing:0em;}.cls-10{letter-spacing:0em;}.cls-11{fill:#fff;}</style></defs><title>logotype</title><g id="Layer_2" data-name="Layer 2"><g id="Layer_1-2" data-name="Layer 1"><path d="M7.49,42.9a93.92,93.92,0,0,1,4.32-13.31A89.23,89.23,0,0,1,18.09,17a49,49,0,0,1,9-11.18,25.93,25.93,0,0,1,6.24-4.13A17.85,17.85,0,0,1,40.91,0a17.88,17.88,0,0,1,7.5,1.88,27.17,27.17,0,0,1,6.16,4.21,51.65,51.65,0,0,1,9,11.18A112.79,112.79,0,0,1,74.82,42.9C70.51,34.66,66.22,26.44,61,19A54.62,54.62,0,0,0,52.08,9C48.77,6.13,44.88,4,40.85,4a14,14,0,0,0-5.92,1.23,24,24,0,0,0-5.37,3.44,51.4,51.4,0,0,0-8.87,10A151.21,151.21,0,0,0,7.49,42.9Z"/><path d="M7.49,41.16A83.25,83.25,0,0,0,24,48a65.63,65.63,0,0,0,17.25,2.63,59.65,59.65,0,0,0,17.21-2.43,89.09,89.09,0,0,0,16.39-7.08,48.54,48.54,0,0,1-15.35,10,47,47,0,0,1-18.3,3.49A50.76,50.76,0,0,1,23,51a52.67,52.67,0,0,1-8.24-4.18A40.41,40.41,0,0,1,7.49,41.16Z"/><text class="cls-1" transform="matrix(-1.06, 0, 0, 1, 54.23, 103.05)">9</text><text class="cls-2" transform="matrix(-1.41, 0, 0, 1, 52.66, 95.54)">2</text><path class="cls-3" d="M28.36,101.26a4.73,4.73,0,0,0-1.23-2.4"/><path class="cls-3" d="M29.77,98.58c-.15,4.13-1.26,4.27-2.79,5"/><line class="cls-3" x1="46.68" y1="82.84" x2="50.68" y2="82.84"/><line class="cls-3" x1="46.68" y1="85.28" x2="50.68" y2="85.28"/><line class="cls-3" x1="47.14" y1="75.11" x2="47.1" y2="79.75"/><line class="cls-3" x1="50.22" y1="75.13" x2="50.18" y2="79.77"/><line class="cls-3" x1="47.37" y1="76.33" x2="49.93" y2="76.35"/><line class="cls-3" x1="47.34" y1="78.27" x2="49.94" y2="78.27"/><ellipse class="cls-3" cx="30.23" cy="87.46" rx="1.48" ry="2.18"/><line class="cls-3" x1="29.27" y1="89.09" x2="31.32" y2="86"/><text class="cls-4" transform="matrix(0, 0.85, -1, 0, 30.29, 74.14)">..</text><line class="cls-3" x1="27.75" y1="92.79" x2="30.96" y2="92.79"/><line class="cls-3" x1="28.01" y1="92.6" x2="28.01" y2="95.61"/><line class="cls-3" x1="27.98" y1="95.33" x2="30.91" y2="95.35"/><path d="M27.12,81.19a2,2,0,0,0,1.27,1.06A4.86,4.86,0,0,0,30,82.5a6.66,6.66,0,0,0,1.7-.25c.57-.13,1.13-.35,1.73-.55a4.83,4.83,0,0,1-3.42,1.55,3.78,3.78,0,0,1-1.91-.47A1.75,1.75,0,0,1,27.12,81.19Z"/><text class="cls-5" transform="translate(46.87 64.62)">&gt;</text><text class="cls-6" transform="translate(28.37 71.99) scale(1.37 1)">7</text><text class="cls-7" transform="translate(47.13 70.9) scale(1.06 1)">;</text><path d="M22.76,58.22a46.48,46.48,0,0,1,1.35,9.54,63.9,63.9,0,0,1-.27,9.58A50,50,0,0,1,22,86.81a26.83,26.83,0,0,1-1.85,4.57,12.25,12.25,0,0,1-1.43,2.11,4.56,4.56,0,0,1-1,.87,1.65,1.65,0,0,1-1.24.28,1.52,1.52,0,0,0,.83-.72,4.28,4.28,0,0,0,.44-1,14.7,14.7,0,0,0,.53-2.2c.26-1.51.45-3,.62-4.56l1-9.24c.33-3.09.69-6.19,1.12-9.31A86,86,0,0,1,22.76,58.22Z"/><path d="M57.51,57.39a82.43,82.43,0,0,1,1.72,9.9c.39,3.29.68,6.57.9,9.85s.38,6.55.52,9.82c.07,1.64.14,3.27.24,4.9,0,.82.12,1.62.23,2.42a6.66,6.66,0,0,0,.23,1.18c.12.37.23.77.63.93-.46.08-.86-.32-1.16-.63a9,9,0,0,1-.75-1.11A18.06,18.06,0,0,1,59,92.28a36,36,0,0,1-1.44-4.9,66.27,66.27,0,0,1-1.4-10,81.71,81.71,0,0,1,0-10A56.16,56.16,0,0,1,57.51,57.39Z"/><path d="M39.81,60.54a125.66,125.66,0,0,1,1.4,13.89c.24,4.63.32,9.26.27,13.88s-.25,9.25-.6,13.87A126.12,126.12,0,0,1,39.15,116a123.73,123.73,0,0,1-1.41-13.9q-.36-6.93-.26-13.88t.6-13.87A125.65,125.65,0,0,1,39.81,60.54Z"/><line class="cls-8" x1="22.75" y1="60.54" x2="22.75" y2="60.54"/><text class="cls-9" transform="matrix(1.13, 0, 0, -1, 28.76, 60)">E</text><text class="cls-10" transform="translate(46.68 89.64)">.</text><path d="M39.92,17.73c3.22,0,3.22-5,0-5s-3.22,5,0,5Z"/><path d="M39.54,6.45a47.5,47.5,0,0,0-12.65,5.83l3.42,3.42c3.59-4.8,9.16-6.76,15-6,2.87.37,3.26-4.13.66-4.91-8.28-2.47-16.06,1.83-21.09,8.34a68.14,68.14,0,0,0-6.65,11.46q-1.86,3.71-3.7,7.41l-2.06,4.12-.82,1.65c-.82,1-.43,1.27,1.15.69L14,41.27c2.21-6.88,4.9-14.08,9-20.08C27.21,15,34.27,12.6,41.31,11.26a13.91,13.91,0,0,1,5.36-.45c2.15.45,2.93,1.48,4.46,3.08A76,76,0,0,1,58,22.28,80.56,80.56,0,0,1,68,41.34l1.15-2.82C64.79,40.63,61,43.58,56.32,45a107.24,107.24,0,0,1-12.9,2.75,26.19,26.19,0,0,1-15-1.65c-4.13-1.65-9.43-3.47-13-6.18l1.24,2.16c-.14-2.32,3.5-6.74,4.66-8.82,1.79-3.21,3.49-6.5,5.41-9.63,2.44-3.95,5.22-6.74,9.62-8.38C38.43,14.47,44.61,12,46.3,14l1.77-4.26A34.44,34.44,0,0,0,24.45,22.48c-1.63,2,.47,5.65,3,3.93,7.9-5.32,16.37-9.59,26.15-8.43,3,.35,3.14-4,.66-4.91-5.92-2.14-11.66,2-16.75,4.61-5.52,2.84-12.55,5.2-17,9.64A2.52,2.52,0,0,0,23,31.5l20-5.67c4.8-1.36,11.09-2,14.91-5.41,1.73-1.57.24-4.1-1.77-4.27-6.41-.53-11.49.38-17.06,3.62C32.85,23.36,26.81,27.19,20.76,31A2.52,2.52,0,0,0,22,35.64,36.22,36.22,0,0,0,33.34,34c3.45-1,11.66-4.73,14.75-1.66L49.86,28c-5.56-.42-11.39-1.19-17-.5-5,.63-9.75,3.54-13.67,6.67C17,36,14.22,39.09,16.53,42c1.15,1.44,3.23,1.42,4.77,2.16,2,1,3.56,2.67,5.48,3.75,4.23,2.38,9.15,1.94,13.8,1.47a81.27,81.27,0,0,0,16.08-3c3.94-1.24,8.83-3,10.62-7.13,1.46-3.35.24-6.47-2.52-8.54-2.17-1.62-4.43,1.42-3.42,3.43l4.82,9.54,2.16-3.76-.95,0,2.16,1.24c-.6-.86-.15-2.82-.51-3.94-.75-2.3-2.49-4.45-3.76-6.46a74.25,74.25,0,0,0-8.88-11C55,18.18,52,19.35,52.11,21.5A15.75,15.75,0,0,0,54,27.64c.74,1.56,3.25,8.72,5,8.88l2.41,1.83c-2.27-6.94-5.26-16.88-13.06-19.22-2-.59-4.13,1.87-2.83,3.67C46.37,24,55.3,37,51.92,37.9l3.17,2.41c-.66-7.4-4.63-19.15-14-17.36-2,.38-2.21,2.87-1.1,4.18q6.12,7.26,12.7,14.09c2.24,2.32,5.77-1.22,3.54-3.54q-6.58-6.84-12.71-14.09l-1.1,4.18c4.94-.94,7.36,9,7.67,12.54a2.53,2.53,0,0,0,3.16,2.41c10.75-3,0-17.71-3.42-22.44L47,24c5.54,1.66,8,10.94,9.57,15.73A2.61,2.61,0,0,0,59,41.52c10.59,1-1.69-17.1-1.88-20l-4.26,1.77c4,4.34,8.66,8.84,10.93,14.49,1.25,3.12-.17,7.05,4.54,7.14a2.52,2.52,0,0,0,2.16-3.76l-4.82-9.55L62.24,35c4,3-8.18,6.9-9.18,7.16a83.69,83.69,0,0,1-10.66,2,47.87,47.87,0,0,1-8.62.58c-3.52-.22-5.54-2-8.3-3.84-.68-.46-4.75-2.37-4.57-1.93-.05-.13,6.25-4.09,7.44-4.73C34.65,30.88,43,32.52,49.86,33c2.21.17,3.22-2.82,1.76-4.27-3.16-3.14-7.38-2.66-11.47-1.84C34,28.15,28.39,30.85,22,30.64l1.26,4.66q7.5-4.71,15.08-9.31c6-3.62,10.62-5.43,17.71-4.84l-1.77-4.27c-1.88,1.71-5.57,2.1-8,2.78l-8.55,2.43L21.66,26.67l2.43,4.18c3.28-3.28,8.63-5.07,12.7-7.16C41.11,21.46,48,16.09,53,17.89L53.63,13C43.08,11.73,33.5,16.34,25,22.09L28,26A29.56,29.56,0,0,1,48.07,14.74a2.54,2.54,0,0,0,1.76-4.27C47.49,7.61,44,8.1,40.73,8.83c-5,1.11-10.13,2.79-13.89,6.45-4.12,4-6.59,9.66-9.35,14.6-1.7,3.05-7,9.1-5.73,12.85,1.14,3.37,8.48,5.2,11.43,6.52,5,2.22,10.14,4.25,15.69,4.07,5.72-.19,11.75-1.69,17.28-3.11,5.72-1.46,10.24-4.81,15.47-7.38A2.5,2.5,0,0,0,72.78,40,85.7,85.7,0,0,0,59.9,16.46a57.85,57.85,0,0,0-8.5-9.32C48.78,5,46.21,5.45,43,5.93,35.22,7.11,27,9.33,21.35,15.26,15.2,21.78,11.81,31.57,9.13,39.94a2.54,2.54,0,0,0,1.14,2.82c1.87,1.34,3.62.44,4.9-1.16,3-3.75,4.81-9.37,7-13.67C26.41,19.37,32.81,6.07,44.64,9.6l.67-4.91C37.59,3.69,30.6,7,26,13.18c-1.52,2,1.42,4.73,3.42,3.42a42.9,42.9,0,0,1,11.46-5.33c3.08-.91,1.77-5.74-1.33-4.82Z"/><path d="M57,38.56a166.06,166.06,0,0,0-19.57.76c-3.79.38-12.71,2.23-10.91-5,.63-2.47,2.87-5.14,4.33-7.17,2.78-3.86,5.58-6.84,6-11.79.12-1.37-.31-3.68.28-4.95,3.07-6.54,6.08-.24,6.75,1.69A38.49,38.49,0,0,1,45.66,21c.12,1.38.45,2.74-.39,3.27-.49.3-3.86.14-4.29.15-3,.1-6.14-.49-9.13-.15S25.4,26.57,25.08,30s2.49,5.72,5.63,6c1.72.18,17.7-4.4,17.29-1.32l1.24-2.16c-4.66,3.45-13.54-3.07-19-2.76-2.95.17-7.45,1.79-8.08,5.15-.75,3.95,3.33,4.3,6.14,4.31,3.3,0,6.59-.08,9.89-.12s9.18-1.16,12.25.28l.59-4.57c-5.27,1.63-11-.18-16.47.33A43,43,0,0,0,21,38.9c-2.25,1-1.14,4.87,1.26,4.66,9.44-.81,18.4,3.87,27.8,1.29,2.63-.73,2.22-5.15-.67-4.91a10.8,10.8,0,0,0-6,2.43c-1.69,1.27-2.77,2.68-5,3s-8.17-1.94-4.57-5c.81-.68,4.5-.15,5.76-.19L47.32,40l13.42-.43c3.21-.1,3.23-5.1,0-5l-24,.78c-3.79.12-10.1.06-10.41,5.33-.27,4.36,5.43,8.88,9.2,9.88A8.88,8.88,0,0,0,41.5,50c2.73-1.25,4.84-4.8,7.92-5.05L48.76,40C40,42.44,31.19,37.79,22.29,38.56l1.27,4.66a36,36,0,0,1,16.17-3.13c4.37.19,8.41.94,12.68-.37,1.9-.59,2.65-3.61.6-4.57-3.65-1.72-7.87-1-11.8-1l-7.91.09c-1.77,0-6,.83-7.38-.24l1.23,2.16c0-1.91,6.19-1.11,7.08-.89,2,.49,3.81,1.34,5.73,2,3.1,1,6.62,1.74,9.8.64,4-1.39,4.26-5.62.81-8.13-2.11-1.53-4.66-1.53-7.13-1.25a47.64,47.64,0,0,0-4.75.83c-.8.18-4.86,1.84-5.43,1.48-1.09-.68,1.36-1.55,1.25-1.51.6-.24,2.09.13,2.75.15a61.27,61.27,0,0,0,6.5-.16c2-.16,4.73-.07,6.15-1.8,2.85-3.45.12-12.25-1-16-1.39-4.53-4.61-9.45-10-8.92-5.82.56-6.61,6.54-6.92,11.17-.49,7.33-7.26,12.09-10,18.7-2.42,5.73.5,11,6.64,12.18,4.16.79,8.61-.31,12.79-.63,5.22-.4,10.44-.5,15.67-.41,3.22,0,3.22-5,0-5Z"/><path d="M9.37,42.26a1.25,1.25,0,0,0,0-2.5,1.25,1.25,0,0,0,0,2.5Z"/><path d="M10.07,40a1.25,1.25,0,0,0,0-2.5,1.25,1.25,0,0,0,0,2.5Z"/><path d="M9.94,40.73a1.25,1.25,0,0,0,0-2.5,1.25,1.25,0,0,0,0,2.5Z"/><path d="M10,42.87a1.25,1.25,0,0,0,0-2.5,1.25,1.25,0,0,0,0,2.5Z"/><path d="M12.26,44.23a1.25,1.25,0,0,0,0-2.5,1.25,1.25,0,0,0,0,2.5Z"/><path d="M21.12,40.2a1.25,1.25,0,0,0,0-2.5,1.25,1.25,0,0,0,0,2.5Z"/><path d="M9.15,41.9a.63.63,0,0,0,0-1.25.63.63,0,0,0,0,1.25Z"/><path d="M8.93,41.94a.63.63,0,0,0,0-1.25.63.63,0,0,0,0,1.25Z"/><path d="M8.71,42a.63.63,0,0,0,0-1.25.63.63,0,0,0,0,1.25Z"/><path d="M35.5,45.45a.63.63,0,0,0,0-1.25.63.63,0,0,0,0,1.25Z"/><path d="M72.33,42.82a.63.63,0,0,0,0-1.25.63.63,0,0,0,0,1.25Z"/><path d="M72.7,43a7,7,0,0,1,1-1.21l-.61.16.22,0A.63.63,0,0,0,74,41a49.79,49.79,0,0,1-2.7-5.3c-.33-.73-1.41-.1-1.08.63a51.74,51.74,0,0,0,2.7,5.3l.71-.92c-.94-.15-1.33.67-1.86,1.33s.39,1.52.89.89Z"/><path d="M.83,46.25A.63.63,0,0,0,.83,45a.63.63,0,0,0,0,1.25Z"/><path class="cls-11" d="M.6,46.47a.63.63,0,0,0,0-1.25.63.63,0,0,0,0,1.25Z"/><path class="cls-11" d="M.72,45.58a.63.63,0,0,0,0-1.25.63.63,0,0,0,0,1.25Z"/><path class="cls-11" d="M7.55,43.45a.63.63,0,0,0,0-1.25.63.63,0,0,0,0,1.25Z"/><path class="cls-11" d="M7.55,42.89a.63.63,0,0,0,0-1.25.63.63,0,0,0,0,1.25Z"/><path class="cls-11" d="M7.1,41.55a.63.63,0,0,0,0-1.25.63.63,0,0,0,0,1.25Z"/><path class="cls-11" d="M7.1,41.77a.63.63,0,0,0,0-1.25.63.63,0,0,0,0,1.25Z"/><path class="cls-11" d="M1.5,46.25A.63.63,0,0,0,1.5,45a.63.63,0,0,0,0,1.25Z"/><path class="cls-11" d="M75.43,42.85c.15.09,0,0,.12-.07s.13-.16.19-.23a2.38,2.38,0,0,0,.45-.71,1.51,1.51,0,0,0-.35-1.56.62.62,0,0,0-.88,0,1,1,0,0,0-.29.77l1.22-.17a.8.8,0,0,0-1-.61.63.63,0,0,0-.37.92.35.35,0,0,1-.07.5l.88.88a2.85,2.85,0,0,0,.61-1.12.62.62,0,0,0-.44-.76.8.8,0,0,0-1,.78c0,.81,1.2.8,1.25,0v-.09l-.18.44-.36.07-.43-.77a1.47,1.47,0,0,1-.29.57.62.62,0,0,0,.88.88,1.56,1.56,0,0,0,.26-2l-.37.92-.48-.26c.11.69,1.26.53,1.23-.17l-.08.11H75c.22.26-.15.55-.3.74a1.68,1.68,0,0,0-.37.68,1.2,1.2,0,0,0,.51,1.35c.69.42,1.31-.66.63-1.08Z"/><path class="cls-11" d="M8.39,42.31a1,1,0,0,0-.55-.7l-.13-.06c0,.24,0,.3,0,.19s.08-.3.08-.36a.62.62,0,0,0-.62-.62h0a.64.64,0,0,0-.6.79v0a.63.63,0,0,0,.77.44.65.65,0,0,0,.44-.77v0L7.15,42h0l-.63-.63q.14-.39,0-.12a.61.61,0,0,0-.08.27,1,1,0,0,0,0,.52,1,1,0,0,0,.29.41s.41.31.37.18c.23.76,1.44.44,1.2-.33Z"/></g></g></svg>