<svg xmlns="http://www.w3.org/2000/svg" viewBox="0 0 83.66 38.66"><defs><style>.cls-1{fill:#abb4d0;}.cls-2{fill:#dfe1e3;stroke:#abb4d0;stroke-miterlimit:10;}</style></defs><title>agile2</title><g id="Layer_2" data-name="Layer 2"><g id="Layer_1-2" data-name="Layer 1"><path class="cls-1" d="M1.2,33.18c3.51,2.11,8.9,5.61,12.85,2.5a11.86,11.86,0,0,0,4.13-10.75c-.4-3.61-2-7.79.27-11.12,2.12-3.11,6.73-4.51,10.33-4.48,9.18.08,3.62,10,3.19,15.43C31.05,36.24,47,41.52,54.66,33.67c4-4.09,2.06-9.87.73-14.65-.81-2.95-2.25-6.91.37-9.37C58.17,7.38,65.1,6.38,66,10.5c.59,2.83-1.49,6.74-2.32,9.4s-1.72,5.53-1.38,8.33c.87,7.18,8.49,7.46,14.17,6.43,3.16-.57,1.82-5.39-1.33-4.82-3.88.7-8.46.6-7.76-4.36.41-2.9,1.65-5.68,2.48-8.47C71,13,72.09,7.93,68.39,4.89S58.15,2.34,54.1,4.74c-4.74,2.81-5.35,7.77-4.28,12.75.61,2.88,2,5.74,2.18,8.7.32,4.48-3.27,6-7.29,5.94-3.73-.09-7.55-1.6-7.83-5.74C36.67,23.26,38.12,20,38.71,17c.9-4.54.52-9.13-4-11.43S23.78,4.3,19.39,6.66c-6,3.23-7.67,8.81-6.73,15.26.41,2.79,1.74,7.34-1.23,9.29-2.36,1.55-5.46-1-7.71-2.35C1,27.2-1.56,31.52,1.2,33.18Z"/><path class="cls-2" d="M73.65,28.44c6.6.63,9,.63,9,.63l-5.21,7Z"/><path class="cls-2" d="M57.46.88c5.77,3.26,8,4.24,8,4.24L57.84,9.39Z"/><path class="cls-2" d="M42.74,29.32c5.75,3.28,7.95,4.27,7.95,4.27l-7.61,4.24Z"/><path class="cls-2" d="M12.28,9.33C18.86,8.55,21.22,8,21.22,8L17.61,16Z"/></g></g></svg>