<svg xmlns="http://www.w3.org/2000/svg" viewBox="0 0 83.09 69.21"><defs><style>.cls-1{fill:none;stroke:#abb4d0;}.cls-1,.cls-2{stroke-miterlimit:10;stroke-width:3px;}.cls-2{fill:#abb4d0;stroke:#000;}</style></defs><title>DBcloud</title><g id="Layer_2" data-name="Layer 2"><g id="Layer_1-2" data-name="Layer 1"><path class="cls-1" d="M1.8,25.83c.27,14.79,59.63,15.8,59.64-.32"/><path class="cls-1" d="M1.54,9.81c0,18.63,59.66,18.37,59.83-1.23"/><path class="cls-1" d="M1.8,40.66c0,15,59.57,15.85,59.57-.25"/><path class="cls-1" d="M2.08,54.85c0,11.93,59.36,13.41,59.36-1.75"/><line class="cls-1" x1="1.54" y1="9.81" x2="2.08" y2="54.85"/><line class="cls-1" x1="61.37" y1="8.58" x2="61.44" y2="53.1"/><path class="cls-1" d="M1.5,10.76C1.5-.52,61.41-2.17,61.41,9.58"/><path class="cls-2" d="M39,66.69a1.07,1.07,0,0,0-.4,0c-7.29.74-10.19-9.54-3.07-13.11,0,0,2.08-.92,2.08-1-.18-3.5,4-5.67,6.81-4.79h0c1.76-7.65,26.36-13,29.26,3.08,10.13-.26,9.36,14,4.09,15.74h-.06C61.43,68.17,42.7,67.94,39,66.69Z"/></g></g></svg>