<svg xmlns="http://www.w3.org/2000/svg" viewBox="0 0 117.21 91.61"><defs><style>.cls-1,.cls-3,.cls-8,.cls-9{fill:none;}.cls-1,.cls-10,.cls-11,.cls-2,.cls-6,.cls-7,.cls-8,.cls-9{stroke:#abb4d0;}.cls-1,.cls-10,.cls-11,.cls-12,.cls-2,.cls-4,.cls-5,.cls-6,.cls-7,.cls-8,.cls-9{stroke-miterlimit:10;}.cls-1{stroke-width:3px;}.cls-2{fill:#fff;stroke-width:6px;}.cls-4,.cls-5{stroke:#000;}.cls-4{stroke-width:0.25px;}.cls-5{stroke-width:0.5px;}.cls-6,.cls-8{stroke-width:4px;}.cls-10,.cls-11,.cls-7,.cls-9{stroke-width:2px;}.cls-10{fill:#abb4cd;}.cls-11{fill:#abb4d0;}.cls-12{stroke:#fff;}</style></defs><title>gearDesktop</title><g id="Layer_2" data-name="Layer 2"><g id="Layer_1-2" data-name="Layer 1"><path class="cls-1" d="M111.06,88.42H31.83L32,45.72h77.79a1.44,1.44,0,0,1,1.43,1.44Z"/><line class="cls-2" x1="25.88" y1="88.61" x2="117.19" y2="88.21"/><rect class="cls-3" x="50.22" y="82.67" width="41.93" height="4.19"/><rect class="cls-4" x="101.19" y="87.84" width="3.53" height="0.88"/><circle class="cls-5" cx="69.17" cy="45.72" r="0.77"/><ellipse class="cls-6" cx="26.68" cy="50.61" rx="11.85" ry="10.82"/><rect class="cls-7" x="23.59" y="63.72" width="6.18" height="1.67"/><rect class="cls-7" x="11.46" y="41.57" width="6.18" height="1.67" transform="translate(-27.85 27.85) rotate(-52.11)"/><rect class="cls-7" x="10.92" y="57.19" width="6.18" height="1.67" transform="translate(54.91 14.55) rotate(56.82)"/><rect class="cls-7" x="35.58" y="58.01" width="6.18" height="1.67" transform="translate(-31.52 53.22) rotate(-52.11)"/><rect class="cls-7" x="35.44" y="41.41" width="6.18" height="1.67" transform="translate(48.69 -14.02) rotate(52.6)"/><rect class="cls-7" x="23.27" y="35.81" width="6.18" height="1.67"/><ellipse class="cls-8" cx="10.02" cy="27.51" rx="6.79" ry="6.2"/><rect class="cls-9" x="8.25" y="35.03" width="3.54" height="0.96"/><rect class="cls-9" x="1.3" y="22.33" width="3.54" height="0.96" transform="translate(-16.82 11.23) rotate(-52.11)"/><rect class="cls-9" x="0.98" y="31.28" width="3.54" height="0.96" transform="translate(27.83 12.07) rotate(56.82)"/><rect class="cls-9" x="15.12" y="31.76" width="3.54" height="0.96" transform="translate(-18.92 25.77) rotate(-52.11)"/><rect class="cls-9" x="15.04" y="22.24" width="3.54" height="0.96" transform="translate(24.65 -4.44) rotate(52.6)"/><rect class="cls-9" x="8.07" y="19.03" width="3.54" height="0.96"/><ellipse class="cls-8" cx="41.3" cy="18.36" rx="14.45" ry="13.2"/><rect class="cls-10" x="37.52" y="33.68" width="7.54" height="2.04"/><rect class="cls-11" x="23.07" y="7.61" width="7.54" height="2.04" transform="translate(3.55 24.51) rotate(-52.11)"/><rect class="cls-11" x="22.74" y="25.95" width="7.54" height="2.04" transform="translate(34.58 -9.97) rotate(56.82)"/><rect class="cls-11" x="51.83" y="27.14" width="7.54" height="2.04" transform="translate(-0.77 54.74) rotate(-52.11)"/><rect class="cls-11" x="51.5" y="7.15" width="7.54" height="2.04" transform="translate(26.43 -39.68) rotate(50.51)"/><rect class="cls-11" x="37.14" y="1" width="7.54" height="2.04"/><path class="cls-12" d="M88.54,60.55,88.3,61l-3.67-1.73v-.44l3.67-1.75.24.47L85.3,59v0Z"/><path class="cls-12" d="M95.16,55.39c-.2.5-.43,1.13-.71,1.89l-.69,1.85c-.36,1-.68,1.9-1,2.69s-.43,1.23-.47,1.35L91.78,63l.5-1.34,1-2.64c.19-.55.42-1.17.68-1.88s.48-1.35.68-1.91Z"/><path class="cls-12" d="M102.4,59.27,98.73,61l-.25-.45,3.23-1.49v0l-3.23-1.49.25-.47,3.67,1.75Z"/></g></g></svg>