<svg xmlns="http://www.w3.org/2000/svg" viewBox="0 0 52.87 52.87"><defs><style>.cls-1{fill:#fff;}.cls-2{fill:#abb4d0;}.cls-3{fill:#abb4cd;}.cls-3,.cls-4{stroke:#abb4d0;stroke-miterlimit:10;}.cls-4{fill:none;}</style></defs><title>git</title><g id="Layer_2" data-name="Layer 2"><g id="Layer_1-2" data-name="Layer 1"><polyline class="cls-1" points="8.81 10.3 22.4 19.05 39.45 28.01"/><path class="cls-2" d="M7.55,12.46c10,6.46,20.06,12.15,30.63,17.71,2.85,1.5,5.38-2.82,2.53-4.32C30.14,20.29,20.11,14.61,10.07,8.14,7.36,6.4,4.85,10.72,7.55,12.46Z"/><path class="cls-2" d="M20.16,20,24,40c.61,3.15,5.43,1.82,4.82-1.33L25,18.64c-.61-3.15-5.43-1.82-4.82,1.33Z"/><circle class="cls-3" cx="22.39" cy="18.15" r="4.64"/><circle class="cls-3" cx="41.01" cy="29.03" r="4.41"/><circle class="cls-3" cx="27.48" cy="42.31" r="4.41"/><rect class="cls-4" x="0.5" y="0.5" width="51.87" height="51.87" rx="3.64" ry="3.64"/></g></g></svg>