<svg xmlns="http://www.w3.org/2000/svg" viewBox="0 0 102.56 31.9"><defs><style>.cls-1{fill:#abb4d0;}</style></defs><title>mail</title><g id="Layer_2" data-name="Layer 2"><g id="Layer_1-2" data-name="Layer 1"><path class="cls-1" d="M100.69,28.15H49.26L51.14,30V1.91L49.26,3.78h51.43L98.81,1.91V30a1.88,1.88,0,0,0,3.75,0V1.91A1.9,1.9,0,0,0,100.69,0H49.26a1.9,1.9,0,0,0-1.87,1.88V30a1.9,1.9,0,0,0,1.87,1.88h51.43A1.88,1.88,0,0,0,100.69,28.15Z"/><path class="cls-1" d="M48.32,3.53,73.4,18.91c2.07,1.26,3.95-2,1.9-3.24L50.21.29c-2.06-1.27-4,2-1.89,3.24Z"/><path class="cls-1" d="M99.74.29,74,16.05c-2.06,1.26-.17,4.51,1.89,3.24L101.63,3.53c2.06-1.26.17-4.51-1.89-3.24Z"/><polygon class="cls-1" points="38.53 9.31 0 8.16 38.53 7.31 38.53 9.31"/><polygon class="cls-1" points="41.34 16.96 13.5 15.96 41.34 14.96 41.34 16.96"/><polygon class="cls-1" points="36.31 25.65 7.59 24.65 36.31 23.65 36.31 25.65"/></g></g></svg>