<svg xmlns="http://www.w3.org/2000/svg" viewBox="0 0 789 190.01"><defs><style>.cls-1{fill:#abb4d3;}</style></defs><title>Asset 7</title><g id="Layer_2" data-name="Layer 2"><g id="Layer_2-2" data-name="Layer 2"><path class="cls-1" d="M80.06,33.88,64.14,43.32q-4.47-7.75-8.51-10.11-4.22-2.7-10.87-2.7a20.09,20.09,0,0,0-13.57,4.64A14.37,14.37,0,0,0,25.79,46.6q0,9.53,14.16,15.34l13,5.31q15.84,6.4,23.18,15.63t7.33,22.63q0,18-12,29.67T41.55,147q-16.94,0-28-10Q2.7,126.92,0,108.72l19.89-4.38q1.35,11.46,4.72,15.84,6.07,8.43,17.7,8.43a20.54,20.54,0,0,0,15.25-6.15,21.29,21.29,0,0,0,6.07-15.59,21.94,21.94,0,0,0-1.05-7,17.7,17.7,0,0,0-3.29-5.81,26.22,26.22,0,0,0-5.77-5,55.87,55.87,0,0,0-8.43-4.42L32.53,79.48Q5.81,68.18,5.81,46.44A31.34,31.34,0,0,1,17,21.91Q28.23,12,44.92,12,67.42,12,80.06,33.88Z"/><path class="cls-1" d="M82.73,103A40.8,40.8,0,0,1,95.45,72.73q12.73-12.47,31-12.47a42.88,42.88,0,0,1,31.18,12.56q12.64,12.56,12.64,30.84,0,18.46-12.73,30.93T126.13,147q-18.46,0-30.93-12.64Q82.72,121.87,82.73,103Zm19.38.34q0,12.31,6.57,19.47,6.74,7.25,17.78,7.25t17.78-7.17q6.66-7.16,6.66-19.13t-6.66-19.13q-6.74-7.25-17.78-7.25-10.87,0-17.61,7.25T102.11,103.33Z"/><path class="cls-1" d="M189.19,80.23v64.39h-19V80.23H163.4V62.53h6.74V30.85q0-15.51,5.39-21.91Q182.95,0,197.11,0q5.06,0,12.73,2.95V22.33l-1.94-1q-6.15-3.12-10.11-3.12-5.06,0-6.83,3.62t-1.77,13.65V62.53h20.65v17.7Z"/><path class="cls-1" d="M239.82,80.23v64.39h-19V80.23H209.39V62.53h11.47V32.45h19V62.53h14.75v17.7Z"/><path class="cls-1" d="M260.15,32.45m39.13,118.33-.08-41.38L322.37,55l23.35,54.36L367,62.53h21.24l-43,88.24L322.37,97.93l-23.09,52.84m-.08-41.38M281.35,32.45m17.93,118.33c-41.89-55.2-39.13-118.33-39.13-118.33h21.2s-1.64,37.86,17.85,76.94"/><path class="cls-1" d="M438.51,62.53h19v82.09h-19V136q-11.72,11-25.2,11-17,0-28.15-12.3-11-12.56-11-31.35,0-18.45,11-30.76a35.59,35.59,0,0,1,27.64-12.3q14.33,0,25.7,11.8Zm-45,40.79q0,11.8,6.32,19.21a20.7,20.7,0,0,0,16.35,7.5q10.54,0,17-7.25,6.49-7.5,6.49-19t-6.49-19a21.45,21.45,0,0,0-16.86-7.33A21,21,0,0,0,400,84.78Q393.5,92.29,393.5,103.33Z"/><path class="cls-1" d="M464.6,62.53h19v7.33q5.23-5.48,9.27-7.5a21.28,21.28,0,0,1,9.78-2.1A23.23,23.23,0,0,1,518.28,67v23.4C514,84.8,504.86,78.47,499.07,78.63c-10.33.29-15.51,7.81-15.51,23.43v42.56h-19Z"/><path class="cls-1" d="M595.61,108.36h-59.2q.76,10.11,6.58,16.1t14.92,5.9A19.41,19.41,0,0,0,569.61,127q4.55-3.37,10.37-12.47l16,8.93a64,64,0,0,1-7.84,10.83,41.83,41.83,0,0,1-8.85,7.42,35.6,35.6,0,0,1-10.2,4.26,49.74,49.74,0,0,1-11.88,1.35q-18.38,0-29.5-11.8T516.6,104q0-19.47,10.79-31.52,10.87-11.88,28.82-11.88c12.08,0,22,3.85,29,11.54s10.45,18.23,10.45,31.77ZM576.14,92.85c-2.64-10.11-9.4-15.17-19.51-15.17a19.64,19.64,0,0,0-6.49,1.06,18.57,18.57,0,0,0-5.52,3,19.26,19.26,0,0,0-4.26,4.76,22.08,22.08,0,0,0-2.7,6.32Z"/><path class="cls-1" d="M614.66,2.59V144.94h-19V2.59Z"/><path class="cls-1" d="M667.92,76.84l-15.68,8.34q-3.71-7.59-9.19-7.58a6.34,6.34,0,0,0-4.47,1.73,5.78,5.78,0,0,0-1.85,4.42q0,4.72,11,9.36,15.08,6.49,20.31,12t5.23,14.75a25.84,25.84,0,0,1-8.77,19.89,29.82,29.82,0,0,1-20.56,7.58q-20.65,0-29.24-20.14l16.18-7.5q3.37,5.9,5.14,7.5a11.73,11.73,0,0,0,8.26,3.2q9.61,0,9.61-8.77,0-5.06-7.42-9.44-2.87-1.43-5.73-2.78t-5.82-2.78q-8.26-4-11.63-8.09Q619,93.36,619,85.27a23.42,23.42,0,0,1,7.33-17.7,25.72,25.72,0,0,1,18.2-7Q660.25,60.58,667.92,76.84Z"/><path class="cls-1" d="M789,170.91c-19.57,32.66-42.61,16.76-39.13,1.41,7.74-34.21-11.54-30-25.57-26.37a47.69,47.69,0,0,1-11.88,1.35q-18.38,0-29.5-11.8T671.79,104q0-19.47,10.79-31.52,10.87-11.88,28.82-11.88,18.12,0,28.66,11.54t10.45,31.77l-.08,4.47H691.6q.76,10.11,6.58,16.1t14.92,5.9c4.72,0,8.28-1.25,12-2.1,21-4.79,46.17,6.19,35.75,41-6,20.1,12.39,21.67,28.15,1.69M731,92.85q-4-15.17-19.13-15.17a19.64,19.64,0,0,0-6.49,1.06,18.57,18.57,0,0,0-5.52,3,19.26,19.26,0,0,0-4.26,4.76,22.08,22.08,0,0,0-2.7,6.32Z"/><path class="cls-1" d="M343.2,150.78"/></g></g></svg>