<svg id="Layer_1" data-name="Layer 1" xmlns="http://www.w3.org/2000/svg" viewBox="0 0 789 190.01"><defs><style>.cls-1{fill:#54677a;}</style></defs><title>Asset 7</title><g id="Layer_2" data-name="Layer 2"><g id="Layer_2-2" data-name="Layer 2-2"><path class="cls-1" d="M80.19,34.34,64.27,43.78Q59.8,36,55.76,33.67,51.55,31,44.89,31a20.14,20.14,0,0,0-13.57,4.64,14.4,14.4,0,0,0-5.4,11.45q0,9.54,14.16,15.34l13,5.31q15.84,6.41,23.18,15.63T83.59,106q0,18-12,29.67T41.68,147.46q-16.93,0-28-10Q2.84,127.38.13,109.18L20,104.8q1.35,11.46,4.72,15.84,6.07,8.43,17.7,8.43a20.48,20.48,0,0,0,15.25-6.15,21.26,21.26,0,0,0,6.07-15.59,21.89,21.89,0,0,0-1-7,17.62,17.62,0,0,0-3.29-5.81,26.25,26.25,0,0,0-5.77-5,55.9,55.9,0,0,0-8.43-4.42L32.66,79.94Q5.95,68.65,5.94,46.9A31.36,31.36,0,0,1,17.13,22.37q11.24-9.9,27.92-9.91Q67.55,12.46,80.19,34.34Z" transform="translate(-0.13 -0.46)"/><path class="cls-1" d="M82.86,103.46A40.85,40.85,0,0,1,95.58,73.19a42.66,42.66,0,0,1,31-12.47,42.91,42.91,0,0,1,31.18,12.56q12.65,12.57,12.64,30.84,0,18.47-12.73,30.93t-31.41,12.41q-18.45,0-30.93-12.64Q82.85,122.34,82.86,103.46Zm19.38.34q0,12.32,6.57,19.47,6.75,7.26,17.78,7.25t17.78-7.17Q151,116.2,151,104.22t-6.66-19.13q-6.74-7.25-17.78-7.25-10.86,0-17.61,7.25t-6.74,18.7Z" transform="translate(-0.13 -0.46)"/><path class="cls-1" d="M189.32,80.69v64.39h-19V80.69h-6.79V63h6.74V31.31q0-15.51,5.39-21.91Q183.09.46,197.24.46q5.07,0,12.73,3V22.79l-1.94-1q-6.15-3.12-10.11-3.12-5.05,0-6.83,3.62t-1.77,13.65V63H210v17.7Z" transform="translate(-0.13 -0.46)"/><path class="cls-1" d="M240,80.69v64.39H221V80.69H209.52V63H221V32.91h19V63h14.75v17.7Z" transform="translate(-0.13 -0.46)"/><path class="cls-1" d="M299.41,151.24l-.08-41.38,23.17-54.4,23.35,54.36L367.13,63h21.24l-43,88.24L322.5,98.39l-23.09,52.84m0,0C257.52,96,260.28,32.91,260.28,32.91h21.2s-1.64,37.86,17.85,76.94" transform="translate(-0.13 -0.46)"/><path class="cls-1" d="M438.64,63h19v82.09h-19v-8.62q-11.72,11-25.2,11-17,0-28.15-12.3-11-12.55-11-31.35,0-18.45,11-30.76a35.64,35.64,0,0,1,27.64-12.3q14.34,0,25.7,11.8Zm-45,40.79q0,11.81,6.32,19.21a20.71,20.71,0,0,0,16.35,7.5q10.54,0,17-7.25,6.49-7.5,6.49-19t-6.49-19a21.44,21.44,0,0,0-16.86-7.33,21,21,0,0,0-16.32,7.33q-6.5,7.52-6.5,18.55Z" transform="translate(-0.13 -0.46)"/><path class="cls-1" d="M464.73,63h19v7.33q5.24-5.47,9.27-7.5a21.34,21.34,0,0,1,9.78-2.1,23.24,23.24,0,0,1,15.63,6.74v23.4c-4.28-5.6-13.42-11.93-19.21-11.77-10.33.29-15.51,7.81-15.51,23.43v42.56h-19Z" transform="translate(-0.13 -0.46)"/><path class="cls-1" d="M595.74,108.82h-59.2q.76,10.11,6.58,16.1t14.92,5.9a19.34,19.34,0,0,0,11.7-3.36q4.56-3.36,10.37-12.47l16,8.93a63.3,63.3,0,0,1-7.84,10.83,41.69,41.69,0,0,1-8.85,7.42,35.7,35.7,0,0,1-10.2,4.26,49.5,49.5,0,0,1-11.88,1.35q-18.37,0-29.5-11.8t-11.11-31.52q0-19.47,10.79-31.52,10.88-11.88,28.82-11.88c12.08,0,22,3.85,29,11.54s10.45,18.23,10.45,31.77ZM576.27,93.31c-2.64-10.11-9.4-15.17-19.51-15.17a19.88,19.88,0,0,0-6.49,1.06,18.86,18.86,0,0,0-5.52,3A19.54,19.54,0,0,0,540.49,87a22.38,22.38,0,0,0-2.7,6.32Z" transform="translate(-0.13 -0.46)"/><path class="cls-1" d="M614.79,3.05V145.4h-19V3.05Z" transform="translate(-0.13 -0.46)"/><path class="cls-1" d="M668.05,77.3l-15.68,8.34q-3.71-7.59-9.19-7.58a6.34,6.34,0,0,0-4.47,1.73,5.82,5.82,0,0,0-1.85,4.42q0,4.73,11,9.36,15.09,6.5,20.31,12t5.23,14.75a25.8,25.8,0,0,1-8.77,19.89,29.76,29.76,0,0,1-20.56,7.58q-20.64,0-29.24-20.14l16.18-7.5q3.38,5.91,5.14,7.5a11.69,11.69,0,0,0,8.26,3.2q9.62,0,9.61-8.77,0-5.06-7.42-9.44-2.86-1.42-5.73-2.78c-1.9-.9-3.84-1.82-5.82-2.78q-8.25-4-11.63-8.09-4.29-5.16-4.29-13.26A23.46,23.46,0,0,1,626.46,68a25.75,25.75,0,0,1,18.2-7Q660.38,61,668.05,77.3Z" transform="translate(-0.13 -0.46)"/><path class="cls-1" d="M789.13,171.37C769.56,204,746.52,188.13,750,172.78c7.74-34.21-11.54-30-25.57-26.37a47.56,47.56,0,0,1-11.88,1.35q-18.37,0-29.5-11.8t-11.13-31.5q0-19.47,10.79-31.52,10.88-11.88,28.82-11.88,18.12,0,28.66,11.54t10.45,31.77l-.08,4.47H691.73q.76,10.11,6.58,16.1t14.92,5.9c4.72,0,8.28-1.25,12-2.1,21-4.79,46.17,6.19,35.75,41-6,20.1,12.39,21.67,28.15,1.69m-58-78.12q-4-15.16-19.13-15.17a19.88,19.88,0,0,0-6.49,1.06,18.86,18.86,0,0,0-5.52,3A19.54,19.54,0,0,0,695.73,87a22.38,22.38,0,0,0-2.7,6.32Z" transform="translate(-0.13 -0.46)"/><path class="cls-1" d="M343.33,151.24" transform="translate(-0.13 -0.46)"/></g></g></svg>